<?xml version="1.0" standalone="no"?><!DOCTYPE svg PUBLIC "-//W3C//DTD SVG 1.1//EN" "http://www.w3.org/Graphics/SVG/1.1/DTD/svg11.dtd"><svg t="1688892329980" class="icon" viewBox="0 0 1024 1024" version="1.1" xmlns="http://www.w3.org/2000/svg" p-id="8099" xmlns:xlink="http://www.w3.org/1999/xlink" width="200" height="200"><path d="M926.47619 341.333333v170.666667h-108.787809l0.975238-0.926476-120.685714-120.685714-206.896762 206.87238L609.52381 715.678476V853.333333H170.666667a73.142857 73.142857 0 0 1-73.142857-73.142857V341.333333h828.95238z m-228.522666 118.00381l51.736381 51.712L699.952762 560.761905 780.190476 560.761905a146.285714 146.285714 0 1 1 0 292.571428h-121.904762v-73.142857h121.904762a73.142857 73.142857 0 0 0 4.291048-146.163809L780.190476 633.904762l-80.067047-0.024381 49.566476 49.566476-51.736381 51.736381-137.898667-137.923048 137.898667-137.923047zM414.47619 438.857143H219.428571v73.142857h195.047619v-73.142857zM853.333333 170.666667a73.142857 73.142857 0 0 1 73.142857 73.142857v48.761905H97.52381v-48.761905a73.142857 73.142857 0 0 1 73.142857-73.142857h682.666666z" p-id="8100" fill="#000000"></path></svg>