<?xml version="1.0" standalone="no"?><!DOCTYPE svg PUBLIC "-//W3C//DTD SVG 1.1//EN" "http://www.w3.org/Graphics/SVG/1.1/DTD/svg11.dtd"><svg t="1688892281485" class="icon" viewBox="0 0 1024 1024" version="1.1" xmlns="http://www.w3.org/2000/svg" p-id="7917" xmlns:xlink="http://www.w3.org/1999/xlink" width="200" height="200"><path d="M512 97.52381c228.912762 0 414.47619 185.563429 414.47619 414.47619s-185.563429 414.47619-414.47619 414.47619S97.52381 740.912762 97.52381 512 283.087238 97.52381 512 97.52381z m99.425524 230.229333c-22.966857-12.702476-25.673143-14.189714-43.885714-4.510476l-8.16762 4.486095c-7.241143 9.48419-8.557714 11.215238-9.874285 19.431619l-0.926476 6.607238v365.129143h73.142857V441.514667l70.680381 70.704762 51.736381-51.687619zM475.940571 316.952381h-73.142857v277.382095l-70.704762-70.704762-51.712 51.687619 132.705524 132.778667c22.966857 12.678095 25.648762 14.189714 43.861334 4.486095l8.192-4.461714c7.241143-9.48419 8.557714-11.215238 9.849904-19.431619l0.950857-6.607238V316.952381z" p-id="7918" fill="#000000"></path></svg>