<?xml version="1.0" standalone="no"?><!DOCTYPE svg PUBLIC "-//W3C//DTD SVG 1.1//EN" "http://www.w3.org/Graphics/SVG/1.1/DTD/svg11.dtd"><svg height="420" node-id="1" sillyvg="true" template-height="420" template-width="451" version="1.1" viewBox="0 0 451 420" width="451" xmlns="http://www.w3.org/2000/svg" xmlns:xlink="http://www.w3.org/1999/xlink"><defs node-id="51"></defs><path d="M 49.42 254.00 C 49.42 254.00 93.52 234.65 123.11 235.17 C 123.11 235.17 121.11 175.60 112.20 172.38 C 112.20 172.33 33.25 176.00 49.42 254.00 Z" fill="#7c5233" fill-rule="nonzero" node-id="53" stroke="#2938f7" stroke-linecap="butt" stroke-width="1.49" target-height="81.67" target-width="89.86" target-x="33.25" target-y="172.33"></path><path d="M 121.41 165.65 C 121.41 165.65 144.17 222.13 130.41 262.65 C 128.38 263.58 126.22 264.18 124.00 264.43 C 124.00 264.43 127.85 255.13 128.10 235.91 C 127.35 246.77 122.54 256.95 114.62 264.43 C 109.31 264.22 104.11 265.97 100.00 269.33 C 100.00 269.33 124.91 246.77 114.65 198.16 Z" fill="#7c5233" fill-rule="nonzero" node-id="55" stroke="#2938f7" stroke-linecap="butt" stroke-width="1.49" target-height="103.67999" target-width="44.17" target-x="100" target-y="165.65"></path><path d="M 254.35 11.69 L 253.00 10.94 C 251.54 10.47 249.07 11.51 248.17 12.70 C 243.42 19.03 229.32 39.11 217.56 69.53 L 213.82 78.00 C 213.82 78.00 198.64 93.23 192.61 100.53 C 192.61 100.53 197.61 116.47 216.37 116.17 L 236.13 92.31 C 236.13 92.31 259.54 91.18 262.92 87.69 C 266.30 84.20 266.65 80.49 262.65 79.18 C 262.65 79.18 268.13 74.45 267.65 69.84 C 267.34 67.12 264.38 65.84 264.38 65.84 C 264.38 65.84 270.17 58.03 260.79 55.94 L 278.20 27.63 C 279.90 24.88 278.97 21.50 275.73 21.37 C 274.34 21.34 272.96 21.58 271.66 22.08 C 265.05 24.50 244.93 49.89 244.93 49.89 C 244.93 49.89 261.00 16.65 254.35 11.69 Z" fill="#f7d2c5" fill-rule="nonzero" node-id="57" stroke="#2938f7" stroke-linecap="butt" stroke-width="1.49" target-height="106" target-width="87.28999" target-x="192.61" target-y="10.47"></path><path d="M 225.91 78.50 C 225.91 78.50 251.61 80.10 264.33 65.87" fill="#f7d2c5" fill-rule="nonzero" node-id="59" stroke="#2938f7" stroke-linecap="butt" stroke-width="1.49" target-height="14.229996" target-width="38.419983" target-x="225.91" target-y="65.87"></path><path d="M 262.65 79.21 C 246.22 94.52 230.65 86.66 230.65 86.66 C 230.65 86.66 226.96 82.81 231.07 78.49 L 235.78 78.15" fill="#f7d2c5" fill-rule="nonzero" node-id="61" stroke="#2938f7" stroke-linecap="butt" stroke-width="1.49" target-height="16.369995" target-width="35.689987" target-x="226.96" target-y="78.15"></path><path d="M 223.10 74.48 C 223.10 74.48 250.55 56.40 260.74 56.00" fill="#f7d2c5" fill-rule="nonzero" node-id="63" stroke="#2938f7" stroke-linecap="butt" stroke-width="1.49" target-height="18.480003" target-width="37.639984" target-x="223.1" target-y="56"></path><path d="M 222.63 54.54 C 222.63 54.54 214.34 51.32 214.63 65.74 C 214.63 65.74 215.69 79.02 226.91 81.81 C 226.91 81.81 239.75 83.33 233.48 67.24 C 231.08 62.10 227.33 57.71 222.63 54.54 Z" fill="#f7d2c5" fill-rule="nonzero" node-id="65" stroke="#2938f7" stroke-linecap="butt" stroke-width="1.49" target-height="32.010002" target-width="25.410004" target-x="214.34" target-y="51.32"></path><path d="M 263.34 134.49 L 254.63 147.00 L 250.86 152.43 L 250.86 152.43 L 235.75 174.17 L 235.43 174.64 L 214.43 204.88 L 161.71 280.79 C 162.00 285.36 162.35 289.86 162.77 294.29 C 164.53 313.50 167.18 331.29 170.14 347.18 C 174.07 368.29 178.53 385.85 182.06 398.31 L 182.06 398.31 C 182.94 401.39 183.76 404.15 184.50 406.59 L 184.50 406.59 C 186.93 414.59 188.50 418.96 188.50 418.96 L 0.00 418.96 L 0.00 324.25 L 1.71 321.42 C 5.32 315.42 11.10 305.95 17.30 296.10 C 18.03 294.93 18.78 293.76 19.52 292.59 C 25.81 282.66 32.32 272.74 37.28 266.00 C 37.48 265.73 37.67 265.46 37.87 265.21 C 39.43 263.00 41.15 260.90 43.00 258.93 C 44.97 257.04 47.10 255.31 49.37 253.78 C 51.55 252.27 53.87 250.86 56.16 249.57 C 58.45 248.28 60.66 247.15 62.73 246.16 L 63.61 245.73 L 64.40 245.35 L 64.72 245.21 C 66.81 244.21 68.65 243.44 70.08 242.85 C 72.02 242.05 73.19 241.62 73.19 241.62 C 73.58 240.76 74.13 239.98 74.81 239.32 C 76.67 237.47 79.51 236.32 82.81 235.56 C 83.31 235.44 83.81 235.35 84.35 235.25 C 91.52 234.00 100.23 234.64 105.28 235.25 L 105.28 235.25 L 107.28 235.48 C 108.66 235.67 109.48 235.81 109.48 235.81 C 111.44 233.21 113.26 230.51 114.94 227.72 L 114.94 227.72 C 115.62 226.65 116.33 225.51 117.08 224.29 C 117.61 223.43 118.16 222.52 118.72 221.59 L 118.72 221.59 L 119.00 221.00 C 119.94 219.43 120.94 217.77 122.00 216.00 L 122.00 216.00 C 122.56 215.06 123.14 214.11 123.72 213.12 L 123.72 213.12 L 126.61 208.19 C 128.11 205.62 129.69 202.92 131.30 200.12 C 137.14 190.01 143.61 178.66 150.08 167.20 C 155.99 156.71 161.93 146.14 167.39 136.35 C 172.02 128.03 176.33 120.29 180.02 113.64 L 185.14 104.38 L 185.14 104.38 C 186.38 102.16 187.47 100.18 188.42 98.46 L 188.42 98.46 L 190.61 94.46 L 192.44 91.14 L 194.08 91.22 C 196.28 91.35 198.41 91.52 200.47 91.75 L 202.60 92.01 L 202.60 92.01 C 210.03 92.91 217.33 94.71 224.34 97.35 C 226.04 98.02 227.67 98.68 229.22 99.35 L 229.95 99.70 C 230.60 100.00 231.23 100.31 231.85 100.62 C 234.92 102.18 237.87 103.95 240.69 105.92 C 244.95 108.90 248.85 112.38 252.31 116.27 C 252.74 116.75 253.14 117.27 253.53 117.69 C 256.70 121.46 259.39 125.61 261.53 130.04 C 262.24 131.48 262.84 132.97 263.34 134.49 Z" fill="#262626" fill-rule="nonzero" node-id="67" stroke="#2938f7" stroke-linecap="butt" stroke-width="1.49" target-height="327.82" target-width="263.34" target-x="0" target-y="91.14"></path><path d="M 64.91 245.14 L 107.51 288.64 L 118.71 221.53 L 123.71 213.14 L 113.71 303.83 L 58.50 249.12 C 58.50 249.12 59.71 247.42 64.91 245.14 Z" fill="#ff8da5" fill-rule="nonzero" node-id="69" stroke="#2938f7" stroke-linecap="butt" stroke-width="1.49" target-height="90.68999" target-width="65.21" target-x="58.5" target-y="213.14"></path><path d="M 57.21 256.29 C 57.21 256.29 103.03 305.93 115.57 313.86 C 115.57 313.86 129.73 237.60 123.72 213.14 L 126.62 208.21 C 126.62 208.21 122.62 311.50 123.11 330.21 C 123.11 330.21 51.86 263.16 49.42 253.98 Z" fill="#ff8da5" fill-rule="nonzero" node-id="71" stroke="#2938f7" stroke-linecap="butt" stroke-width="1.49" target-height="121.999985" target-width="80.31" target-x="49.42" target-y="208.21"></path><path d="M 79.17 223.49 C 81.19 228.61 82.62 233.95 83.45 239.39 C 83.45 239.39 103.28 255.90 107.88 232.94 C 107.88 232.94 99.01 219.44 101.45 213.80 C 101.45 213.80 99.16 217.47 79.17 223.49 Z" fill="#ffd2d2" fill-rule="nonzero" node-id="73" stroke="#2938f7" stroke-linecap="butt" stroke-width="1.49" target-height="42.09999" target-width="28.71" target-x="79.17" target-y="213.8"></path><path d="M 103.41 222.26 L 106.68 221.53 L 114.83 226.53 C 114.83 226.53 116.70 242.65 108.49 253.97 L 101.75 242.85 C 101.75 242.85 106.91 237.77 105.34 227.58 L 103.00 223.07 C 102.92 222.91 102.92 222.72 103.00 222.56 C 103.08 222.40 103.23 222.29 103.41 222.26 Z" fill="#ffffff" fill-rule="nonzero" node-id="75" stroke="#2938f7" stroke-linecap="butt" stroke-width="1.49" target-height="32.440002" target-width="14.949997" target-x="101.75" target-y="221.53"></path><path d="M 80.29 228.28 L 76.89 231.43 L 74.33 238.36 C 74.33 238.36 82.22 255.18 101.75 255.18 L 101.75 242.83 C 101.75 242.83 88.61 241.08 82.22 233.00 L 80.90 228.46 C 80.87 228.33 80.77 228.23 80.65 228.20 C 80.52 228.16 80.39 228.19 80.29 228.28 Z" fill="#ffffff" fill-rule="nonzero" node-id="77" stroke="#2938f7" stroke-linecap="butt" stroke-width="1.49" target-height="27.019989" target-width="27.419998" target-x="74.33" target-y="228.16"></path><path d="M 28.22 187.35 C 28.22 187.35 47.59 252.45 17.08 273.00 L 27.52 276.18 C 27.52 276.18 34.52 272.06 37.52 256.04 C 37.52 256.04 40.27 276.04 25.47 285.04 C 25.47 285.04 36.08 293.13 53.20 285.04 C 53.20 285.04 57.78 275.04 57.20 256.29 C 57.20 256.29 61.64 274.36 57.20 284.43 L 65.11 281.69 C 65.11 281.69 82.22 242.83 55.45 201.00 Z" fill="#7c5233" fill-rule="nonzero" node-id="79" stroke="#2938f7" stroke-linecap="butt" stroke-width="1.49" target-height="105.78" target-width="65.14" target-x="17.08" target-y="187.35"></path><path d="M 43.51 198.16 C 43.51 198.16 34.45 195.50 33.85 206.41 C 33.25 217.32 47.07 222.52 52.14 214.57 C 52.14 214.57 69.14 228.51 90.80 221.57 C 112.46 214.63 116.44 200.13 117.72 188.72 C 117.72 188.72 130.15 188.39 130.60 176.17 C 131.05 163.95 115.93 160.24 112.20 170.49 C 112.20 170.49 103.57 148.03 70.20 156.49 C 36.83 164.95 39.43 192.59 43.51 198.16 Z" fill="#ffd2d2" fill-rule="nonzero" node-id="81" stroke="#2938f7" stroke-linecap="butt" stroke-width="1.49" target-height="80.479996" target-width="97.8" target-x="33.25" target-y="148.03"></path><path d="M 35.86 198.16 C 35.86 198.16 54.23 189.66 58.12 165.16 C 58.12 165.16 75.12 178.02 87.57 165.16 C 87.57 165.16 104.45 178.81 121.41 165.62 C 121.41 165.62 113.85 140.81 97.66 135.91 C 81.47 131.01 47.37 129.44 29.74 165.16 C 29.74 165.19 21.83 191.07 35.86 198.16 Z" fill="#7c5233" fill-rule="nonzero" node-id="83" stroke="#2938f7" stroke-linecap="butt" stroke-width="1.49" target-height="68.72" target-width="99.58" target-x="21.83" target-y="129.44"></path><path d="M 17.27 145.73 L 27.06 175.00 C 27.33 175.80 27.96 176.42 28.76 176.67 C 29.56 176.93 30.43 176.79 31.11 176.29 C 40.11 169.65 64.66 144.66 109.59 150.01 C 111.37 150.22 112.59 148.24 112.06 146.55 L 102.25 117.30 C 102.03 116.64 101.56 116.09 100.93 115.78 C 100.31 115.46 99.58 115.42 98.92 115.64 L 18.92 142.45 C 17.57 142.91 16.83 144.37 17.27 145.73 Z" fill="#262626" fill-rule="nonzero" node-id="85" stroke="#2938f7" stroke-linecap="butt" stroke-width="1.49" target-height="61.509995" target-width="95.759995" target-x="16.83" target-y="115.42"></path><path d="M 130.00 97.87 L 120.00 106.23 L 103.28 120.31 L 87.28 133.79 L 86.73 134.26 L 69.80 148.48 L 66.90 150.93 C 66.59 151.19 66.19 151.34 65.78 151.35 L 59.19 151.44 L 38.49 151.73 L 26.61 151.91 L 19.37 152.01 L 13.10 152.10 L 6.52 152.19 L -0.03 152.29 L -0.03 134.29 L 14.49 122.74 L 26.61 113.12 L 47.61 96.40 C 47.93 96.14 48.32 96.00 48.73 96.00 L 79.20 95.52 L 83.05 95.45 L 83.34 95.45 L 85.40 95.45 L 85.91 95.45 L 87.73 95.45 L 90.27 95.45 L 111.82 95.00 L 123.62 94.81 L 123.62 94.81 L 128.77 94.73 C 129.53 94.71 130.22 95.16 130.49 95.87 C 130.77 96.57 130.57 97.37 130.00 97.87 Z" fill="#262626" fill-rule="nonzero" node-id="87" stroke="#2938f7" stroke-linecap="butt" stroke-width="1.49" target-height="57.579994" target-width="130.8" target-x="-0.03" target-y="94.71"></path><path d="M 55.45 315.43 C 55.45 315.43 44.30 385.72 23.29 416.38" fill="none" node-id="89" stroke="#2938f7" stroke-linecap="butt" stroke-width="1.49" target-height="100.95001" target-width="32.16" target-x="23.29" target-y="315.43"></path><path d="M 55.71 196.42 C 54.06 192.31 56.32 187.53 60.71 185.76 C 65.10 183.99 70.07 185.88 71.71 189.99" fill="none" node-id="91" stroke="#2938f7" stroke-linecap="butt" stroke-width="1.49" target-height="12.429993" target-width="17.649998" target-x="54.06" target-y="183.99"></path><path d="M 77.86 201.90 C 79.59 205.98 84.55 207.79 88.95 205.90 C 93.35 204.01 95.51 199.23 93.79 195.14 Z" fill="#ff3342" fill-rule="nonzero" node-id="93" stroke="#2938f7" stroke-linecap="butt" stroke-width="0.75" target-height="12.649994" target-width="17.650002" target-x="77.86" target-y="195.14"></path><path d="M 89.58 183.86 C 88.22 179.64 90.80 175.04 95.35 173.58 C 99.90 172.12 104.68 174.35 106.04 178.58" fill="none" node-id="95" stroke="#2938f7" stroke-linecap="butt" stroke-width="1.49" target-height="11.7400055" target-width="17.82" target-x="88.22" target-y="172.12"></path><path d="M 406.78 19.54 L 405.28 19.18 C 403.74 19.18 401.65 20.81 401.11 22.18 C 398.29 29.56 390.25 52.72 387.29 85.18 L 386.00 94.38 C 386.00 94.38 375.59 113.17 371.80 121.84 C 371.80 121.84 380.99 135.78 398.92 130.35 L 411.39 102.00 C 411.39 102.00 433.58 94.49 435.86 90.22 C 438.14 85.95 437.48 82.22 433.27 82.11 C 433.27 82.11 437.27 76.11 435.47 71.78 C 434.47 69.25 431.23 68.84 431.23 68.84 C 431.23 68.84 434.65 59.74 425.06 60.31 L 434.21 27.70 C 435.15 24.36 433.12 22.16 429.77 23.05 C 428.49 23.41 427.29 24.00 426.22 24.80 C 420.53 28.94 408.17 58.85 408.17 58.85 C 408.17 58.85 414.54 22.48 406.78 19.54 Z" fill="#f7d2c5" fill-rule="nonzero" node-id="97" stroke="#2938f7" stroke-linecap="butt" stroke-width="1.49" target-height="116.6" target-width="66.34003" target-x="371.8" target-y="19.18"></path><path d="M 397.78 91.51 C 397.78 91.51 422.91 86.00 431.23 68.85" fill="#f7d2c5" fill-rule="nonzero" node-id="99" stroke="#2938f7" stroke-linecap="butt" stroke-width="1.49" target-height="22.660004" target-width="33.450012" target-x="397.78" target-y="68.85"></path><path d="M 433.27 82.12 C 421.68 101.34 404.53 98.06 404.53 98.06 C 404.53 98.06 399.92 95.38 402.69 90.06 L 407.12 88.44" fill="#f7d2c5" fill-rule="nonzero" node-id="101" stroke="#2938f7" stroke-linecap="butt" stroke-width="1.49" target-height="19.219994" target-width="33.349976" target-x="399.92" target-y="82.12"></path><path d="M 394.00 88.42 C 394.00 88.42 415.41 63.53 425.08 60.32" fill="#f7d2c5" fill-rule="nonzero" node-id="103" stroke="#2938f7" stroke-linecap="butt" stroke-width="1.49" target-height="28.099998" target-width="31.079987" target-x="394" target-y="60.32"></path><path d="M 388.06 69.40 C 388.06 69.40 379.22 68.58 383.40 82.40 C 383.40 82.40 388.06 94.87 399.60 94.48 C 399.60 94.48 412.36 92.41 401.92 78.67 C 398.22 74.38 393.43 71.18 388.06 69.40 Z" fill="#f7d2c5" fill-rule="nonzero" node-id="105" stroke="#2938f7" stroke-linecap="butt" stroke-width="1.49" target-height="26.29" target-width="33.139984" target-x="379.22" target-y="68.58"></path><path d="M 283.63 418.88 L 342.79 418.88 C 341.87 412.21 340.79 404.88 339.79 397.16 C 336.23 371.88 331.96 342.49 328.52 318.86 C 324.82 293.60 322.05 274.94 322.05 274.94 L 322.75 274.32 L 322.75 274.32 C 355.12 245.67 424.81 174.42 424.81 174.42 C 424.02 155.02 415.97 136.64 402.25 122.90 C 395.65 116.18 388.02 110.57 379.64 106.26 C 377.92 105.39 376.91 104.98 376.91 104.98 C 358.78 158.36 335.91 188.27 321.21 203.26 C 312.32 212.33 306.43 215.93 306.43 215.93 L 303.33 214.72 L 302.99 214.59 L 301.74 214.10 L 297.88 212.57 L 293.28 210.71 C 290.80 209.71 289.39 209.09 289.39 209.09 L 289.07 209.09 L 284.62 209.42 L 276.27 210.04 L 276.27 210.04 L 274.27 210.19 L 267.38 210.70 L 267.38 210.70 L 264.76 210.89 L 264.32 210.89 L 244.43 212.35 L 243.78 212.35 L 242.90 212.42 L 242.90 212.42 L 239.20 212.69 L 235.12 212.99 L 229.32 213.42 C 229.25 213.49 229.18 213.56 229.12 213.63 C 227.84 215.05 226.44 217.72 224.94 221.41 C 224.54 222.41 224.13 223.47 223.71 224.61 C 216.29 244.93 206.82 287.73 198.50 329.53 L 198.50 329.53 C 193.58 354.31 189.06 378.73 185.60 397.94 C 185.25 399.86 184.91 401.73 184.60 403.54 L 184.60 403.54 C 183.80 408.04 183.07 412.19 182.41 415.90 C 182.24 416.90 182.07 417.84 181.91 418.76 L 278.51 418.76" fill="#262626" fill-rule="nonzero" node-id="107" stroke="#2938f7" stroke-linecap="butt" stroke-width="1.49" target-height="313.9" target-width="242.9" target-x="181.91" target-y="104.98"></path><path d="M 283.63 418.88 C 284.07 415.55 284.86 409.50 285.81 401.98 C 287.14 391.40 288.81 377.91 290.17 365.08 C 290.77 359.51 291.33 354.08 291.79 349.03 C 292.57 340.57 293.08 333.29 293.13 328.55 L 293.13 328.33 C 293.13 328.33 289.05 326.33 282.77 323.48 C 269.10 317.26 244.99 306.88 229.77 303.69 C 228.09 303.34 226.53 303.08 225.09 302.92 L 224.30 309.21 L 221.35 332.73 L 215.12 382.33 L 234.24 393.33 L 234.24 393.33 L 261.14 408.84 L 278.47 418.84" fill="#ffffff" fill-rule="nonzero" node-id="109" stroke="#2938f7" stroke-linecap="butt" stroke-width="1.49" target-height="115.95999" target-width="78.01001" target-x="215.12" target-y="302.92"></path><path d="M 265.43 361.36 C 265.43 361.36 271.27 353.49 278.54 350.98 C 285.81 348.47 286.54 359.13 281.41 365.35 C 278.39 369.04 274.55 371.97 270.19 373.91 C 274.82 372.66 279.07 370.29 282.56 367.00 C 285.46 364.08 286.45 359.77 285.10 355.88 C 284.10 352.88 283.38 349.23 285.10 347.68 C 288.31 344.80 297.19 349.31 296.20 365.77 C 296.20 365.77 298.44 355.97 294.45 350.63 C 293.96 349.98 293.79 349.14 293.98 348.34 C 294.17 347.55 294.71 346.88 295.45 346.53 C 296.45 346.10 297.70 346.10 299.36 347.24 C 303.77 350.24 306.76 353.94 304.26 370.78 L 306.18 353.60 C 306.26 353.10 306.66 352.72 307.16 352.68 C 307.66 352.64 308.13 352.94 308.29 353.42 C 310.75 357.93 311.23 365.74 308.00 375.05 L 310.68 360.88 C 310.68 360.88 315.39 365.30 313.14 375.21 C 310.89 385.12 300.04 409.11 261.37 401.54 C 261.38 401.58 252.59 373.26 265.43 361.36 Z" fill="#f7d2c5" fill-rule="nonzero" node-id="111" stroke="#2938f7" stroke-linecap="butt" stroke-width="1.49" target-height="64.31" target-width="62.80002" target-x="252.59" target-y="344.8"></path><path d="M 262.39 401.77 C 261.96 404.22 261.53 406.60 261.09 408.88 C 260.39 412.49 259.70 415.88 259.09 418.88 L 217.79 418.88 C 206.49 412.82 195.69 405.86 185.52 398.05 L 182.07 395.37 L 182.07 395.37 C 166.32 382.95 152.00 368.82 139.37 353.23 C 138.48 352.09 138.01 351.47 138.01 351.47 C 140.12 337.76 150.78 314.39 162.78 291.35 C 180.61 257.12 201.37 223.65 201.37 223.65 C 206.01 220.05 210.92 216.82 216.07 214.00 C 217.56 213.19 219.01 212.43 220.44 211.73 C 222.80 210.55 225.10 209.52 227.26 208.62 C 230.92 207.09 234.26 205.93 237.07 205.07 C 237.96 204.79 238.80 204.55 239.57 204.33 C 240.51 204.07 241.36 203.84 242.13 203.65 L 244.19 203.17 L 244.19 203.17 C 245.75 202.83 246.60 202.70 246.60 202.70 L 243.93 211.70 L 243.71 212.44 L 243.29 213.86 L 239.67 226.08 L 237.00 235.20 C 237.00 235.20 237.00 235.20 237.00 235.20 L 233.12 248.30 L 224.00 279.16 L 208.27 322.83 L 208.27 322.83 L 207.27 325.60 L 221.35 332.72 L 259.80 352.17 L 266.29 355.45 C 266.39 356.97 266.44 358.54 266.46 360.14 C 266.63 373.21 264.69 388.49 262.39 401.77 Z" fill="#262626" fill-rule="nonzero" node-id="113" stroke="#2938f7" stroke-linecap="butt" stroke-width="1.49" target-height="216.18001" target-width="128.62001" target-x="138.01" target-y="202.7"></path><path d="M 240.58 205.90 C 240.58 205.90 254.72 249.02 267.34 271.90 C 267.34 271.90 288.17 230.09 289.52 204.03 L 293.90 206.90 C 293.90 206.90 287.31 252.27 267.53 285.90 C 267.53 285.90 239.37 231.64 233.85 208.77 C 233.85 208.80 234.51 206.62 240.58 205.90 Z" fill="#fff66c" fill-rule="nonzero" node-id="115" stroke="#2938f7" stroke-linecap="butt" stroke-width="1.49" target-height="81.869995" target-width="60.049988" target-x="233.85" target-y="204.03"></path><path d="M 227.26 208.60 C 227.26 208.60 251.34 279.88 268.50 297.93 C 268.50 297.93 298.82 232.93 298.02 207.93 L 303.82 210.93 C 303.82 210.93 284.56 294.68 267.93 316.08 C 267.93 316.08 222.83 236.93 220.40 211.24 Z" fill="#fff66c" fill-rule="nonzero" node-id="117" stroke="#2938f7" stroke-linecap="butt" stroke-width="1.49" target-height="108.149994" target-width="83.42001" target-x="220.4" target-y="207.93"></path><path d="M 258.31 185.65 C 258.31 185.65 259.31 190.35 251.47 204.47 C 251.47 204.47 265.88 216.02 277.39 209.47 C 277.39 209.47 276.31 192.18 278.11 186.26 Z" fill="#ffd2d2" fill-rule="nonzero" node-id="119" stroke="#2938f7" stroke-linecap="butt" stroke-width="1.49" target-height="30.37001" target-width="26.639984" target-x="251.47" target-y="185.65"></path><path d="M 277.18 193.92 L 282.43 197.02 L 289.36 209.08 C 289.36 209.08 277.18 225.72 267.00 227.82 L 264.30 211.00 C 264.30 211.00 273.36 210.89 276.40 206.56 Z" fill="#ffffff" fill-rule="nonzero" node-id="121" stroke="#2938f7" stroke-linecap="butt" stroke-width="1.49" target-height="33.90001" target-width="25.059998" target-x="264.3" target-y="193.92"></path><path d="M 230.81 146.16 C 230.81 146.16 222.33 139.68 217.26 150.95 C 212.19 162.22 224.68 173.32 233.26 166.95 C 233.26 166.95 239.89 189.28 270.57 190.02 C 296.26 190.65 307.00 177.76 312.97 166.25 C 312.97 166.25 326.22 170.94 331.66 158.25 C 337.10 145.56 322.66 135.49 314.55 144.78 C 314.55 144.78 314.55 117.59 275.94 113.02 C 237.33 108.45 228.76 138.63 230.81 146.16 Z" fill="#ffd2d2" fill-rule="nonzero" node-id="123" stroke="#2938f7" stroke-linecap="butt" stroke-width="1.49" target-height="82.2" target-width="124.91" target-x="212.19" target-y="108.45"></path><path d="M 288.17 118.69 C 288.17 118.69 285.93 133.42 273.17 133.20 C 273.17 133.20 256.99 149.95 246.57 142.01 C 246.57 142.01 229.28 156.66 222.89 144.75 C 222.89 144.75 212.79 152.06 219.03 162.86 C 219.03 162.86 225.59 170.68 233.26 166.98 C 233.26 166.98 242.85 186.24 258.14 188.33 C 258.14 188.33 245.82 202.95 240.59 205.90 C 240.59 205.90 236.28 200.57 234.85 186.66 C 234.85 186.66 235.68 205.83 240.29 215.66 C 240.29 215.66 230.96 226.23 216.97 219.11 C 216.97 219.11 208.09 173.11 216.33 148.54 C 216.33 148.54 226.33 102.37 257.56 93.19 C 288.79 84.01 317.19 103.88 320.77 136.78 C 320.77 136.78 328.05 195.19 316.60 219.78 C 316.60 219.78 312.60 222.87 301.44 222.47 C 301.44 222.47 304.20 215.37 304.29 202.66 C 304.29 202.66 301.48 221.21 295.69 225.81 C 295.69 225.81 281.22 222.75 280.34 218.65 C 280.34 218.65 286.48 206.47 289.42 196.10 C 289.42 196.10 282.91 202.10 276.98 202.15 L 277.54 189.99 C 277.54 189.99 315.88 185.28 314.31 147.53 C 314.31 147.53 295.72 142.18 294.31 129.44 C 294.26 129.51 292.22 114.58 288.17 118.69 Z" fill="#7c5233" fill-rule="nonzero" node-id="125" stroke="#2938f7" stroke-linecap="butt" stroke-width="1.49" target-height="142.22" target-width="119.95999" target-x="208.09" target-y="84.01"></path><path d="M 257.31 191.56 L 248.40 194.40 L 240.58 205.90 C 240.58 205.90 250.07 224.75 260.06 227.60 L 264.30 211.00 C 264.30 211.00 256.82 207.24 254.12 202.70 Z" fill="#ffffff" fill-rule="nonzero" node-id="127" stroke="#2938f7" stroke-linecap="butt" stroke-width="1.49" target-height="36.04001" target-width="23.719986" target-x="240.58" target-y="191.56"></path><path d="M 243.07 156.00 C 243.19 152.26 247.07 149.34 251.68 149.49 C 256.29 149.64 259.99 152.78 259.87 156.49" fill="none" node-id="129" stroke="#2938f7" stroke-linecap="butt" stroke-width="1.49" target-height="7.150009" target-width="16.919983" target-x="243.07" target-y="149.34"></path><path d="M 283.00 157.30 C 283.12 153.56 287.00 150.64 291.61 150.79 C 296.22 150.94 299.92 154.08 299.80 157.79" fill="none" node-id="131" stroke="#2938f7" stroke-linecap="butt" stroke-width="1.49" target-height="7.149994" target-width="16.920013" target-x="283" target-y="150.64"></path><path d="M 224.45 93.31 L 221.06 133.69 C 221.06 133.69 269.78 116.82 320.76 136.80 L 322.00 96.35 Z" fill="#262626" fill-rule="nonzero" node-id="133" stroke="#2938f7" stroke-linecap="butt" stroke-width="1.49" target-height="43.490005" target-width="100.94" target-x="221.06" target-y="93.31"></path><path d="M 274.05 57.27 L 186.00 86.16 C 185.26 86.47 184.77 87.20 184.77 88.00 C 184.77 88.81 185.26 89.54 186.00 89.85 L 271.88 120.25 C 272.30 120.40 272.77 120.40 273.19 120.25 L 357.64 89.91 C 358.38 89.60 358.86 88.87 358.86 88.07 C 358.86 87.27 358.38 86.54 357.64 86.23 L 275.31 57.28 C 274.90 57.14 274.46 57.13 274.05 57.27 Z" fill="#262626" fill-rule="nonzero" node-id="135" stroke="#2938f7" stroke-linecap="butt" stroke-width="1.49" target-height="63.27" target-width="174.08998" target-x="184.77" target-y="57.13"></path><path d="M 262.39 171.81 C 262.17 176.24 265.85 180.02 270.62 180.26 C 275.39 180.50 279.43 177.11 279.62 172.68 Z" fill="#ff3342" fill-rule="nonzero" node-id="137" stroke="#2938f7" stroke-linecap="butt" stroke-width="0.75" target-height="8.690002" target-width="17.449982" target-x="262.17" target-y="171.81"></path></svg>