<?xml version="1.0" standalone="no"?><!DOCTYPE svg PUBLIC "-//W3C//DTD SVG 1.1//EN" "http://www.w3.org/Graphics/SVG/1.1/DTD/svg11.dtd"><svg t="1691239443597" class="icon" viewBox="0 0 1024 1024" version="1.1" xmlns="http://www.w3.org/2000/svg" p-id="4505" xmlns:xlink="http://www.w3.org/1999/xlink" width="128" height="128"><path d="M506.88 891.72992c212.0704 0 384-171.9296 384-384 0-44.3904-36.68992-41.1136-59.79136-66.5088-16.7936-18.46272-15.07328-68.84352-41.984-81.9712-35.1232-17.14176-78.848-26.2144-113.79712-46.11072-30.3104-17.26464-28.3648-88.65792-59.58656-102.90176-22.49728-10.25024-80.52736 4.8128-108.84096-10.83392C474.15296 181.32992 470.75328 133.12 440.32 133.12c-140.72832 0-317.44 162.52928-317.44 374.60992 0 212.0704 171.9296 384 384 384z" fill="#FEA935" p-id="4506"></path><path d="M599.04 517.96992m-66.56 0a66.56 66.56 0 1 0 133.12 0 66.56 66.56 0 1 0-133.12 0Z" fill="#914C12" p-id="4507"></path><path d="M373.76 651.08992m-66.56 0a66.56 66.56 0 1 0 133.12 0 66.56 66.56 0 1 0-133.12 0Z" fill="#914C12" p-id="4508"></path><path d="M394.24 405.32992m-46.08 0a46.08 46.08 0 1 0 92.16 0 46.08 46.08 0 1 0-92.16 0Z" fill="#914C12" p-id="4509"></path><path d="M578.56 712.52992m-46.08 0a46.08 46.08 0 1 0 92.16 0 46.08 46.08 0 1 0-92.16 0Z" fill="#914C12" p-id="4510"></path><path d="M732.16 610.12992m-25.6 0a25.6 25.6 0 1 0 51.2 0 25.6 25.6 0 1 0-51.2 0Z" fill="#914C12" p-id="4511"></path><path d="M291.84 517.96992m-25.6 0a25.6 25.6 0 1 0 51.2 0 25.6 25.6 0 1 0-51.2 0Z" fill="#914C12" p-id="4512"></path></svg>