<?xml version="1.0" standalone="no"?><!DOCTYPE svg PUBLIC "-//W3C//DTD SVG 1.1//EN" "http://www.w3.org/Graphics/SVG/1.1/DTD/svg11.dtd"><svg t="1695309958680" class="icon" viewBox="0 0 1024 1024" version="1.1" xmlns="http://www.w3.org/2000/svg" p-id="4030" xmlns:xlink="http://www.w3.org/1999/xlink" width="128" height="128"><path d="M711.808 1024H92.672a61.056 61.056 0 0 1-60.928-60.928V60.928A61.056 61.056 0 0 1 92.672 0h838.656a61.056 61.056 0 0 1 60.928 60.928v682.624A280.768 280.768 0 0 1 711.808 1024z m-606.976-73.216h606.976a207.488 207.488 0 0 0 207.232-207.232V73.216H104.832v877.568z" fill="#13227a" p-id="4031"></path><path d="M345.728 490.816V235.712a54.656 54.656 0 0 1 98.688-32.384L599.552 414.08V220.352a39.296 39.296 0 0 1 39.296-39.296h0.128a39.296 39.296 0 0 1 39.232 39.296V473.6a56.448 56.448 0 0 1-101.76 33.6l-152.128-204.8V490.88a39.296 39.296 0 0 1-39.296 39.296h-0.128a39.296 39.296 0 0 1-39.168-39.296zM766.208 682.496H257.664a36.544 36.544 0 0 1 0-73.088h508.544a36.48 36.48 0 0 1 0 73.088zM562.304 810.24h-304.64a36.48 36.48 0 1 1 0-73.088h304.64a36.48 36.48 0 1 1 0 73.088z" fill="#13227a" p-id="4032"></path></svg>