<?xml version="1.0" standalone="no"?><!DOCTYPE svg PUBLIC "-//W3C//DTD SVG 1.1//EN" "http://www.w3.org/Graphics/SVG/1.1/DTD/svg11.dtd"><svg height="709" node-id="1" sillyvg="true" template-height="709" template-width="709" version="1.1" viewBox="0 0 709 709" width="709" xmlns="http://www.w3.org/2000/svg" xmlns:xlink="http://www.w3.org/1999/xlink"><defs node-id="74"><clipPath id="XMLID_2_" node-id="22"><path d="M 473.80 257.50 C 473.80 257.50 535.60 289.90 571.70 307.50 C 571.70 307.50 501.70 393.40 454.10 414.50 C 454.10 414.50 373.40 417.00 372.30 401.20 C 371.30 385.40 442.10 280.70 473.80 257.50 Z" fill="#000000" fill-rule="nonzero" node-id="77" stroke="none" target-height="159.5" target-width="200.40002" target-x="371.3" target-y="257.5"></path></clipPath><clipPath id="XMLID_3_" node-id="35"><path d="M 456.40 458.40 L 246.30 458.40 L 264.50 222.50 L 438.20 222.50 Z" fill="#000000" fill-rule="nonzero" node-id="81" stroke="none" target-height="235.9" target-width="210.09999" target-x="246.3" target-y="222.5"></path></clipPath></defs><path d="M 232.20 585.00 C 232.20 602.51 220.07 616.70 205.10 616.70 C 190.13 616.70 178.00 602.51 178.00 585.00 C 178.00 567.49 190.13 553.30 205.10 553.30 C 220.07 553.30 232.20 567.49 232.20 585.00 Z" fill="#d67090" fill-rule="nonzero" node-id="85" stroke="#191919" stroke-linecap="butt" stroke-width="5" target-height="63.400024" target-width="54.199997" target-x="178" target-y="553.3"></path><g node-id="252"><path d="M 369.33 632.74 L 370.00 636.66 L 370.20 640.46 L 369.93 644.15 L 369.22 647.78 L 368.13 651.17 L 366.65 654.36 L 364.78 657.32 L 362.59 659.95 L 360.08 662.26 L 357.27 664.19 L 354.19 665.69 L 350.82 666.76 L 347.31 667.31 L 343.89 667.33 L 340.52 666.85 L 337.24 665.90 L 334.12 664.52 L 331.12 662.69 L 328.38 660.50 L 325.89 657.95 L 323.64 655.01 L 321.76 651.82 L 320.25 648.34 L 319.10 644.52 L 318.43 640.59 L 318.24 636.80 L 318.50 633.11 L 319.21 629.47 L 320.30 626.08 L 321.79 622.90 L 323.66 619.93 L 325.84 617.31 L 328.36 615.00 L 331.16 613.06 L 334.24 611.56 L 337.62 610.49 L 341.12 609.95 L 344.54 609.93 L 347.91 610.41 L 351.19 611.36 L 354.32 612.74 L 357.31 614.57 L 360.05 616.76 L 362.54 619.31 L 364.79 622.25 L 366.67 625.43 L 368.19 628.92 L 369.33 632.74 Z" fill="#d67090" fill-rule="nonzero" group-id="1" node-id="89" stroke="#191919" stroke-linecap="butt" stroke-width="5.0001583" target-height="57.400024" target-width="51.960022" target-x="318.24" target-y="609.93"></path></g><path d="M 154.90 490.50 C 154.90 490.50 177.80 477.30 184.80 499.70 L 188.70 534.40 C 189.30 539.90 192.90 544.60 198.00 546.70 L 360.40 613.30 C 360.40 613.30 379.10 619.20 391.50 608.20 C 403.80 597.20 414.40 609.50 408.90 613.70 C 408.90 613.70 397.40 631.80 378.30 632.20 C 378.30 632.20 364.00 635.70 355.20 633.10 L 183.50 562.10 C 172.40 557.50 164.40 547.50 162.50 535.60 L 154.90 490.50 Z" fill="#ffb0c1" fill-rule="nonzero" node-id="92" stroke="#191919" stroke-linecap="butt" stroke-width="5" target-height="158.40002" target-width="259.5" target-x="154.9" target-y="477.3"></path><path d="M 410.10 496.00 C 410.10 513.51 397.97 527.70 383.00 527.70 C 368.03 527.70 355.90 513.51 355.90 496.00 C 355.90 478.49 368.03 464.30 383.00 464.30 C 397.97 464.30 410.10 478.49 410.10 496.00 Z" fill="#d67090" fill-rule="nonzero" node-id="94" stroke="#191919" stroke-linecap="butt" stroke-width="5" target-height="63.400024" target-width="54.200012" target-x="355.9" target-y="464.3"></path><path d="M 554.74 569.41 L 555.41 573.34 L 555.60 577.14 L 555.33 580.83 L 554.63 584.46 L 553.53 587.85 L 552.05 591.03 L 550.18 594.00 L 547.99 596.63 L 545.48 598.94 L 542.67 600.87 L 539.60 602.37 L 536.22 603.44 L 532.72 603.98 L 529.30 604.01 L 525.92 603.52 L 522.64 602.57 L 519.52 601.19 L 516.53 599.37 L 513.78 597.18 L 511.29 594.62 L 509.04 591.69 L 507.17 588.50 L 505.65 585.01 L 504.50 581.20 L 503.83 577.27 L 503.64 573.47 L 503.91 569.78 L 504.61 566.15 L 505.71 562.76 L 507.19 559.57 L 509.06 556.61 L 511.25 553.98 L 513.76 551.67 L 516.57 549.74 L 519.64 548.24 L 523.02 547.17 L 526.52 546.63 L 529.94 546.60 L 533.32 547.08 L 536.60 548.04 L 539.72 549.42 L 542.71 551.24 L 545.46 553.43 L 547.95 555.98 L 550.20 558.92 L 552.07 562.11 L 553.59 565.59 L 554.74 569.41 Z" fill="#d67090" fill-rule="nonzero" group-id="2" node-id="98" stroke="#191919" stroke-linecap="butt" stroke-width="5.0001583" target-height="57.410034" target-width="51.95996" target-x="503.64" target-y="546.6"></path><path d="M 437.00 528.20 C 437.00 545.71 424.87 559.90 409.90 559.90 C 394.93 559.90 382.80 545.71 382.80 528.20 C 382.80 510.69 394.93 496.50 409.90 496.50 C 424.87 496.50 437.00 510.69 437.00 528.20 Z" fill="#e563a7" fill-rule="nonzero" node-id="101" stroke="#191919" stroke-linecap="butt" stroke-width="3" target-height="63.400024" target-width="54.200012" target-x="382.8" target-y="496.5"></path><path d="M 334.60 419.20 C 334.60 419.20 357.50 406.00 364.50 428.40 L 369.30 472.00 L 540.00 542.00 C 540.00 542.00 558.70 547.90 571.10 536.90 C 583.40 525.90 594.00 538.20 588.50 542.40 C 588.50 542.40 577.00 560.50 557.90 560.90 C 557.90 560.90 543.60 564.40 534.80 561.80 L 345.20 483.40 L 334.60 419.20 Z" fill="#ffb0c1" fill-rule="nonzero" node-id="103" stroke="#191919" stroke-linecap="butt" stroke-width="5" target-height="158.40002" target-width="259.4" target-x="334.6" target-y="406"></path><path d="M 354.40 187.00 L 343.80 407.30 L 550.80 476.00 L 673.30 300.20 Z" fill="#a0357c" fill-rule="nonzero" node-id="105" stroke="#191919" stroke-linecap="butt" stroke-width="3" target-height="289" target-width="329.5" target-x="343.8" target-y="187"></path><path d="M 154.60 263.50 L 154.60 263.50 C 150.50 265.00 145.90 262.90 144.40 258.80 L 116.20 183.30 C 114.70 179.20 116.80 174.60 120.90 173.10 L 120.90 173.10 C 125.00 171.60 129.60 173.70 131.10 177.80 L 159.30 253.30 C 160.70 257.40 158.60 262.00 154.60 263.50 Z" fill="#ebf299" fill-rule="nonzero" node-id="107" stroke="#191919" stroke-linecap="butt" stroke-width="3" target-height="93.399994" target-width="46" target-x="114.7" target-y="171.6"></path><path d="M 354.40 187.00 L 343.80 407.30 L 154.90 490.50 L 105.30 269.20 Z" fill="#b5458a" fill-rule="nonzero" node-id="109" stroke="#191919" stroke-linecap="butt" stroke-width="3" target-height="303.5" target-width="249.09999" target-x="105.3" target-y="187"></path><path d="M 321.00 207.30 L 321.00 207.30 C 316.80 208.30 312.40 205.70 311.40 201.50 L 292.00 123.30 C 291.00 119.10 293.60 114.70 297.80 113.70 L 297.80 113.70 C 302.00 112.70 306.40 115.30 307.40 119.50 L 326.80 197.70 C 327.90 202.00 325.30 206.30 321.00 207.30 Z" fill="#ebf299" fill-rule="nonzero" node-id="111" stroke="#191919" stroke-linecap="butt" stroke-width="3" target-height="95.600006" target-width="36.899994" target-x="291" target-y="112.7"></path><path d="M 105.30 269.20 L 354.40 187.00 L 354.40 210.80 L 135.90 278.70 Z" fill="#e26485" fill-rule="nonzero" node-id="113" stroke="#191919" stroke-linecap="butt" stroke-width="3" target-height="91.70001" target-width="249.09999" target-x="105.3" target-y="187"></path><path d="M 354.40 187.00 L 673.30 300.20 L 636.90 314.20 L 354.40 210.80 Z" fill="#e26485" fill-rule="nonzero" node-id="115" stroke="#191919" stroke-linecap="butt" stroke-width="3" target-height="127.20001" target-width="318.9" target-x="354.4" target-y="187"></path><path d="M 313.00 85.10 L 64.70 154.90 C 53.50 158.20 47.10 170.00 50.40 181.20 L 50.40 181.20 C 53.70 192.40 65.50 198.80 76.70 195.50 L 324.60 118.00 C 335.80 114.70 341.80 107.30 338.50 96.20 L 338.50 96.20 C 335.20 84.90 324.10 81.80 313.00 85.10 Z" fill="#e26480" fill-rule="nonzero" node-id="117" stroke="#191919" stroke-linecap="butt" stroke-width="5" target-height="117" target-width="294.69998" target-x="47.1" target-y="81.8"></path><path d="M 473.80 257.50 C 473.80 257.50 535.60 289.90 571.70 307.50 C 571.70 307.50 501.70 393.40 454.10 414.50 C 454.10 414.50 373.40 417.00 372.30 401.20 C 371.30 385.40 442.10 280.70 473.80 257.50 Z" fill="#c3ea86" fill-rule="nonzero" group-id="3,7" node-id="123" stroke="none" target-height="159.5" target-width="200.40002" target-x="371.3" target-y="257.5"></path><g clip-path="url(#XMLID_2_)" group-id="3,8" node-id="126"><path d="M 419.90 292.30 C 419.90 292.30 525.60 308.20 551.00 362.10 L 533.00 384.80 C 533.00 384.80 489.10 344.10 400.30 318.70 L 419.90 292.30 Z" fill="#95bf43" fill-rule="nonzero" group-id="3,8" node-id="128" stroke="none" target-height="92.5" target-width="150.70001" target-x="400.3" target-y="292.3"></path></g><g clip-path="url(#XMLID_2_)" group-id="3,9" node-id="131"><path d="M 382.10 325.60 C 382.10 325.60 521.70 383.90 550.70 409.30 L 524.70 405.20 C 524.70 405.20 469.80 373.20 353.60 321.50 L 382.10 325.60 Z" fill="#95bf43" fill-rule="nonzero" group-id="3,9" node-id="133" stroke="none" target-height="87.79999" target-width="197.1" target-x="353.6" target-y="321.5"></path></g><g clip-path="url(#XMLID_2_)" group-id="3,10" node-id="136"><path d="M 455.10 283.70 C 455.10 283.70 529.40 322.70 548.10 332.00" fill="none" group-id="3,10" node-id="138" stroke="#87b23d" stroke-linecap="round" stroke-width="3" target-height="48.299988" target-width="92.99997" target-x="455.1" target-y="283.7"></path></g><path d="M 473.80 257.50 C 473.80 257.50 535.60 289.90 571.70 307.50 C 571.70 307.50 501.70 393.40 454.10 414.50 C 454.10 414.50 373.40 417.00 372.30 401.20 C 371.30 385.40 442.10 280.70 473.80 257.50 Z" fill="none" group-id="3,11" node-id="143" stroke="#191919" stroke-linecap="round" stroke-width="3" target-height="159.5" target-width="200.40002" target-x="371.3" target-y="257.5"></path><path d="M 481.40 298.20 C 481.40 346.19 442.49 385.10 394.50 385.10 C 346.51 385.10 307.60 346.19 307.60 298.20 C 307.60 250.21 346.51 211.30 394.50 211.30 C 442.49 211.30 481.40 250.21 481.40 298.20 Z" fill="#ff9248" fill-rule="nonzero" node-id="147" stroke="#191919" stroke-linecap="round" stroke-width="3" target-height="173.8" target-width="173.79999" target-x="307.6" target-y="211.3"></path><path d="M 375.20 286.00 C 375.20 333.99 336.29 372.90 288.30 372.90 C 240.31 372.90 201.40 333.99 201.40 286.00 C 201.40 238.01 240.31 199.10 288.30 199.10 C 336.29 199.10 375.20 238.01 375.20 286.00 Z" fill="#e5f299" fill-rule="nonzero" node-id="149" stroke="#191919" stroke-linecap="butt" stroke-width="3" target-height="173.79999" target-width="173.80002" target-x="201.4" target-y="199.1"></path><path d="M 456.40 458.40 L 246.30 458.40 L 264.50 222.50 L 438.20 222.50 Z" fill="#edb2de" fill-rule="nonzero" group-id="4,12,15" node-id="157" stroke="none" target-height="235.9" target-width="210.09999" target-x="246.3" target-y="222.5"></path><g clip-path="url(#XMLID_3_)" group-id="4,12,16" node-id="160"><path d="M 244.90 281.30 L 224.30 370.60 L 459.60 365.50 L 454.40 288.20 L 238.00 296.80 Z" fill="#c673b4" fill-rule="nonzero" group-id="4,12,16" node-id="162" stroke="none" target-height="89.30002" target-width="235.3" target-x="224.3" target-y="281.3"></path></g><path d="M 456.40 458.40 L 246.30 458.40 L 264.50 222.50 L 438.20 222.50 Z" fill="none" group-id="4,12,17" node-id="167" stroke="#191919" stroke-linecap="round" stroke-width="3" target-height="235.9" target-width="210.09999" target-x="246.3" target-y="222.5"></path><path d="M 456.40 458.40 L 494.00 409.70 L 438.20 222.50 Z" fill="#d685c5" fill-rule="nonzero" group-id="4" node-id="171" stroke="#191919" stroke-linecap="round" stroke-width="3" target-height="235.9" target-width="55.799988" target-x="438.2" target-y="222.5"></path><path d="M 653.00 328.90 L 550.80 476.00 L 387.80 564.10 L 463.20 392.10 Z" fill="#ce5580" fill-rule="nonzero" node-id="174" stroke="#191919" stroke-linecap="butt" stroke-width="5" target-height="235.19998" target-width="265.2" target-x="387.8" target-y="328.9"></path><path d="M 70.90 185.30 L 329.10 106.40" fill="none" node-id="176" stroke="#b24662" stroke-linecap="round" stroke-width="4" target-height="78.9" target-width="258.2" target-x="70.9" target-y="106.4"></path><path d="M 477.60 249.70 L 492.00 237.30 L 495.00 252.80 L 508.70 244.90 L 509.00 256.80 L 523.00 251.30 L 522.70 265.60 L 537.00 260.30 L 537.00 272.50 L 550.50 267.50 L 549.70 278.60 L 562.60 275.20 L 560.20 286.00 L 574.00 281.00 L 571.40 289.50 L 582.80 288.80 L 572.40 308.00 C 572.40 308.00 498.10 268.70 473.30 256.20 L 477.60 249.70 Z" fill="#c3ea86" fill-rule="nonzero" node-id="178" stroke="#191919" stroke-linecap="round" stroke-width="3" target-height="70.7" target-width="109.5" target-x="473.3" target-y="237.3"></path><path d="M 283.00 343.10 C 283.00 343.10 268.70 175.00 202.10 205.20 C 135.50 235.40 175.10 311.40 175.10 319.40 C 175.10 327.40 203.60 406.60 203.60 406.60 C 203.60 406.60 209.90 471.60 251.20 439.90 C 292.50 408.20 294.10 365.30 283.00 343.10 Z" fill="#f4d89a" fill-rule="nonzero" node-id="180" stroke="#191919" stroke-linecap="round" stroke-width="3" target-height="296.6" target-width="158.6" target-x="135.5" target-y="175"></path><path d="M 189.50 287.30 C 190.30 283.30 192.30 279.70 195.20 276.80 C 202.10 269.80 219.00 255.00 240.20 252.40 C 254.10 250.70 255.80 258.30 251.60 262.40 C 250.10 263.90 248.30 265.10 246.40 266.00 C 243.00 267.60 236.80 270.50 234.80 271.60 C 224.40 277.00 222.00 279.40 218.30 284.20 C 214.10 289.40 186.00 304.70 189.50 287.30 Z" fill="#d39053" fill-rule="nonzero" node-id="182" stroke="none" target-height="54.000015" target-width="69.8" target-x="186" target-y="250.7"></path><path d="M 203.60 323.10 C 204.30 319.80 206.00 316.70 208.40 314.30 C 214.20 308.40 228.30 296.00 246.10 293.80 C 257.80 292.40 259.20 298.80 255.70 302.20 C 254.40 303.40 253.00 304.50 251.40 305.20 C 248.60 306.50 243.40 309.00 241.70 309.90 C 233.00 314.40 231.00 316.50 227.90 320.40 C 224.30 324.90 200.80 337.70 203.60 323.10 Z" fill="#d39053" fill-rule="nonzero" node-id="184" stroke="none" target-height="45.30002" target-width="58.40001" target-x="200.8" target-y="292.4"></path><path d="M 213.30 363.20 C 214.00 359.90 215.70 356.80 218.10 354.40 C 223.90 348.50 238.00 336.10 255.80 333.90 C 267.50 332.50 268.90 338.90 265.40 342.30 C 264.10 343.50 262.70 344.60 261.10 345.30 C 258.30 346.60 253.10 349.10 251.40 350.00 C 242.70 354.50 240.70 356.60 237.60 360.50 C 234.00 365.00 210.50 377.80 213.30 363.20 Z" fill="#ddac7a" fill-rule="nonzero" node-id="186" stroke="none" target-height="45.299988" target-width="58.399994" target-x="210.5" target-y="332.5"></path><path d="M 387.80 564.10 L 154.90 490.50 L 106.60 270.40 L 460.50 398.50 Z" fill="#f49ab2" fill-rule="nonzero" node-id="188" stroke="#191919" stroke-linecap="butt" stroke-width="5" target-height="293.69998" target-width="353.9" target-x="106.6" target-y="270.4"></path><path d="M 214.90 482.40 L 213.10 482.60 C 206.60 483.40 200.50 478.70 199.70 472.20 L 186.80 370.20 C 186.00 363.70 190.70 357.60 197.20 356.80 L 199.00 356.60 C 205.50 355.80 211.60 360.50 212.40 367.00 L 225.30 469.00 C 226.10 475.50 221.40 481.60 214.90 482.40 Z" fill="#b24667" fill-rule="nonzero" node-id="190" stroke="#191919" stroke-linecap="butt" stroke-width="3" target-height="127.600006" target-width="40.100006" target-x="186" target-y="355.8"></path><path d="M 280.50 506.10 L 278.70 506.10 C 272.10 506.10 266.70 500.70 266.70 494.10 L 266.50 391.30 C 266.50 384.70 271.90 379.30 278.50 379.30 L 280.30 379.30 C 286.90 379.30 292.30 384.70 292.30 391.30 L 292.50 494.10 C 292.50 500.70 287.10 506.10 280.50 506.10 Z" fill="#b24667" fill-rule="nonzero" node-id="192" stroke="#191919" stroke-linecap="butt" stroke-width="3" target-height="126.80002" target-width="26" target-x="266.5" target-y="379.3"></path><path d="M 346.60 524.90 L 343.90 524.60 C 337.60 523.90 333.10 518.40 333.90 512.50 L 346.70 415.50 C 347.50 409.60 353.30 405.30 359.60 406.10 L 362.30 406.40 C 368.60 407.10 373.10 412.60 372.30 418.50 L 359.50 515.50 C 358.70 521.40 352.90 525.60 346.60 524.90 Z" fill="#b24667" fill-rule="nonzero" node-id="194" stroke="#191919" stroke-linecap="butt" stroke-width="3" target-height="120.29999" target-width="40" target-x="333.1" target-y="405.3"></path><path d="M 461.40 419.20 L 660.00 336.40 L 673.30 300.20 L 459.60 383.90 Z" fill="#e26485" fill-rule="nonzero" node-id="196" stroke="#191919" stroke-linecap="butt" stroke-width="5" target-height="119" target-width="213.69998" target-x="459.6" target-y="300.2"></path><path d="M 267.20 239.50 L 275.70 239.60" fill="none" group-id="5,13" node-id="202" stroke="#191919" stroke-linecap="round" stroke-width="3" target-height="0.1000061" target-width="8.5" target-x="267.2" target-y="239.5"></path><path d="M 292.30 239.90 L 417.00 242.10" fill="none" group-id="5,13" node-id="204" stroke="#191919" stroke-dasharray="16.6269 16.6269" stroke-linecap="round" stroke-width="3" target-height="2.2000122" target-width="124.70001" target-x="292.3" target-y="239.9"></path><path d="M 425.30 242.20 L 433.80 242.40" fill="none" group-id="5,13" node-id="206" stroke="#191919" stroke-linecap="round" stroke-width="3" target-height="0.19999695" target-width="8.5" target-x="425.3" target-y="242.2"></path><path d="M 470.90 262.20 C 470.90 262.20 512.40 293.60 566.20 312.10" fill="none" node-id="210" stroke="#191919" stroke-dasharray="17 17" stroke-linecap="round" stroke-width="3" target-height="49.899994" target-width="95.30002" target-x="470.9" target-y="262.2"></path><path d="M 186.60 224.90 C 186.60 224.90 218.30 195.80 234.60 219.60" fill="none" node-id="212" stroke="#d39053" stroke-linecap="round" stroke-width="3" target-height="29.09999" target-width="48" target-x="186.6" target-y="195.8"></path><path d="M 195.90 362.60 C 195.90 362.60 191.60 363.90 191.60 368.00 C 191.60 372.10 204.80 470.10 204.80 470.10 C 204.80 470.10 204.40 476.90 210.80 477.40" fill="none" node-id="214" stroke="#7f1862" stroke-linecap="round" stroke-width="3" target-height="114.79999" target-width="19.199997" target-x="191.6" target-y="362.6"></path><path d="M 276.90 384.60 C 276.90 384.60 272.40 385.30 271.90 389.40 C 271.40 393.50 271.50 492.40 271.50 492.40 C 271.50 492.40 270.20 499.10 276.50 500.50" fill="none" node-id="216" stroke="#7f1862" stroke-linecap="round" stroke-width="3" target-height="115.899994" target-width="6.6999817" target-x="270.2" target-y="384.6"></path><path d="M 358.00 410.30 C 358.00 410.30 353.20 411.30 351.70 415.60 C 350.40 419.50 338.90 509.60 338.90 509.60 C 338.90 509.60 336.80 518.60 342.90 520.80" fill="none" node-id="218" stroke="#7f1862" stroke-linecap="round" stroke-width="3" target-height="110.5" target-width="21.200012" target-x="336.8" target-y="410.3"></path><path d="M 355.85 273.79 L 360.35 274.42 L 364.61 275.45 L 368.65 276.85 L 372.50 278.64 L 376.17 280.80 L 379.56 283.25 L 382.67 285.98 L 385.52 289.02 L 388.08 292.32 L 390.28 295.81 L 392.13 299.51 L 393.65 303.43 L 394.77 307.47 L 395.47 311.62 L 395.75 315.91 L 395.60 320.37 L 394.97 324.78 L 393.94 328.96 L 392.52 332.92 L 390.71 336.70 L 388.53 340.29 L 386.05 343.61 L 383.27 346.66 L 380.18 349.46 L 376.84 351.95 L 373.30 354.09 L 369.54 355.91 L 365.54 357.39 L 361.44 358.48 L 357.21 359.15 L 352.84 359.41 L 348.30 359.25 L 343.80 358.61 L 339.54 357.59 L 335.50 356.18 L 331.65 354.40 L 327.97 352.23 L 324.59 349.79 L 321.47 347.05 L 318.62 344.01 L 316.07 340.72 L 313.87 337.23 L 312.01 333.53 L 310.49 329.61 L 309.37 325.57 L 308.67 321.42 L 308.39 317.13 L 308.54 312.67 L 309.18 308.26 L 310.21 304.08 L 311.62 300.12 L 313.43 296.34 L 315.62 292.74 L 318.09 289.43 L 320.87 286.38 L 323.96 283.58 L 327.30 281.09 L 330.85 278.94 L 334.61 277.13 L 338.61 275.65 L 342.71 274.56 L 346.93 273.89 L 351.31 273.62 L 355.85 273.79 Z" fill="#1677ff" fill-rule="nonzero" group-id="6,14,18,20,21,23" node-id="232" stroke="none" target-height="85.79001" target-width="87.359985" target-x="308.39" target-y="273.62"></path><path d="M 305.60 312.40 C 303.40 337.50 322.40 359.80 348.00 362.10 C 373.60 364.40 396.20 345.80 398.40 320.60 C 400.60 295.50 381.60 273.20 356.00 270.90 C 330.50 268.60 307.90 287.20 305.60 312.40 Z M 311.10 312.80 C 313.10 290.60 333.00 274.20 355.60 276.20 C 378.20 278.20 395.00 297.90 393.00 320.00 C 391.00 342.20 371.10 358.60 348.50 356.60 C 325.90 354.70 309.10 335.00 311.10 312.80 Z" fill="#ffffff" fill-rule="evenodd" group-id="6,14,18,20,22" node-id="238" stroke="none" target-height="95.79999" target-width="97.20001" target-x="303.4" target-y="268.6"></path><path d="M 364.50 324.20 C 368.50 326.00 372.10 327.70 374.70 328.90 C 384.30 333.00 391.50 335.40 391.50 335.40 L 385.60 343.80 C 385.60 343.80 368.40 334.90 359.70 329.90 C 353.00 336.70 344.80 340.40 336.70 339.70 C 323.00 338.50 319.40 326.30 326.50 319.20 C 328.10 317.60 330.60 316.20 334.40 315.70 C 340.40 314.80 349.50 317.90 358.00 321.50 C 359.80 318.80 361.40 315.80 362.70 312.60 L 335.80 310.20 L 336.00 307.50 L 349.90 308.70 L 350.30 303.90 L 333.50 302.40 L 333.70 299.70 L 350.50 301.20 L 351.10 294.40 C 351.10 294.40 351.20 293.30 352.40 293.40 L 359.20 294.00 L 358.50 302.00 L 375.10 303.50 L 375.00 306.00 L 358.40 304.50 L 358.00 309.30 L 371.60 310.50 C 369.70 315.60 367.30 320.20 364.50 324.20 Z M 328.40 321.50 C 322.70 325.50 325.10 334.10 335.80 335.00 C 342.00 335.50 348.60 332.20 354.00 326.40 C 347.40 322.50 341.70 319.60 335.30 319.60 C 333.60 319.70 330.30 320.10 328.40 321.50 Z" fill="#ffffff" fill-rule="evenodd" group-id="6,14,19" node-id="245" stroke="none" target-height="50.5" target-width="72.100006" target-x="319.4" target-y="293.3"></path><path d="M 105.30 269.20 L 100.70 299.60 L 461.40 419.20 L 459.60 383.90 Z" fill="#e26485" fill-rule="nonzero" node-id="250" stroke="#191919" stroke-linecap="butt" stroke-width="5" target-height="150" target-width="360.7" target-x="100.7" target-y="269.2"></path></svg>